<?xml version="1.0" standalone="no"?>
<!DOCTYPE svg PUBLIC "-//W3C//DTD SVG 20010904//EN"
 "http://www.w3.org/TR/2001/REC-SVG-20010904/DTD/svg10.dtd">
<svg version="1.0" xmlns="http://www.w3.org/2000/svg"
 width="968.000000pt" height="968.000000pt" viewBox="0 0 968.000000 968.000000"
 preserveAspectRatio="xMidYMid meet">
<metadata>
Created by potrace 1.14, written by Peter Selinger 2001-2017
</metadata>
<g transform="translate(0.000000,968.000000) scale(0.100000,-0.100000)"
fill="#000000" stroke="none">
<path d="M5415 9673 c-77 -11 -260 -56 -336 -84 -502 -183 -887 -596 -1034
-1108 -46 -162 -60 -270 -60 -463 l0 -168 -71 0 -72 0 -1 140 c-1 256 -53 473
-167 705 -222 455 -625 770 -1139 893 -103 25 -126 26 -345 26 -219 0 -242 -1
-345 -26 -652 -156 -1119 -621 -1272 -1267 -26 -110 -28 -128 -28 -361 0 -233
2 -251 28 -361 183 -773 839 -1300 1617 -1302 288 0 525 62 833 221 4 2 7 -84
7 -192 l0 -196 -347 0 c-328 0 -350 -1 -380 -20 -70 -42 -68 -24 -71 -632 l-3
-548 -206 0 -205 0 -42 47 c-57 64 -226 189 -314 231 -74 35 -149 50 -196 38
-41 -10 -92 -62 -116 -118 -32 -73 -50 -209 -50 -368 0 -242 39 -383 120 -438
30 -21 44 -23 105 -20 56 3 84 11 142 41 114 57 247 151 300 211 l48 56 207 0
207 0 3 -732 3 -733 27 -46 c15 -25 46 -59 69 -75 l42 -29 301 -6 c166 -4 522
-7 791 -8 l491 -1 19 -56 c48 -142 171 -297 318 -403 l79 -56 -1 -217 c-2
-206 -1 -218 19 -238 20 -20 31 -20 470 -20 437 0 451 1 470 20 19 19 20 33
20 233 l0 213 69 48 c140 95 274 264 331 417 l22 59 325 0 c269 0 330 3 361
15 47 20 78 50 105 100 22 39 22 50 25 563 l3 522 307 0 c279 0 311 2 341 18
59 32 71 68 71 219 l0 133 218 0 217 0 605 -390 c537 -345 610 -389 645 -390
22 0 51 7 63 16 54 38 52 -18 52 1179 0 1215 3 1147 -60 1180 -16 8 -42 15
-59 15 -20 0 -225 -107 -633 -330 l-605 -330 -221 0 -222 0 0 133 c0 113 -3
137 -20 164 -34 56 -43 58 -325 63 l-260 5 -5 90 c-6 100 -16 127 -63 155 -31
19 -54 20 -509 20 l-478 0 0 115 0 115 58 0 c84 0 253 27 361 56 608 165 1063
657 1193 1289 30 149 33 458 4 610 -131 706 -688 1248 -1393 1354 -67 10 -392
13 -458 4z"/>
<path d="M4072 1388 c-18 -18 -17 -312 1 -326 8 -7 71 -13 155 -14 l141 -3
-69 -125 c-37 -69 -165 -303 -284 -520 l-216 -395 1066 -3 c587 -1 1069 0
1072 3 3 2 -126 236 -287 520 -160 283 -291 517 -291 520 0 3 94 5 210 5 197
0 210 1 220 19 13 26 13 286 0 312 -10 19 -31 19 -858 19 -646 0 -851 -3 -860
-12z"/>
</g>
</svg>
