<svg width="215" height="242" viewBox="0 0 215 242" fill="none" xmlns="http://www.w3.org/2000/svg">
<path d="M127.302 0.00145566C104.554 0.0543335 86.1419 18.6036 86.1419 41.4669C86.1427 42.9292 86.2205 44.3904 86.3748 45.8444H82.413C82.4773 44.9016 82.5094 43.9569 82.5094 43.012C82.5094 20.1114 64.0391 1.54676 41.2547 1.54653C18.4703 1.54676 -2.81756e-05 20.1114 0 43.012C-2.81756e-05 65.9125 18.4703 84.4772 41.2547 84.4774C48.7294 84.4773 56.0637 82.436 62.4738 78.5717V85.7788C62.4738 85.9194 62.4793 86.0583 62.493 86.1957V88.9465H62.0405C61.7431 88.8614 61.4288 88.8158 61.1038 88.8158H45.9096C44.0448 88.8158 42.5331 90.3164 42.5331 92.1674V118.814H31.768C31.6158 118.814 31.768 118.662 31.768 118.814C30.7096 117.238 28.9139 115.779 26.5702 114.089C23.612 111.955 21.2276 110.856 19.3676 110.824C15.8163 110.763 14.1733 114.594 14.0862 122.556C13.9536 134.689 17.6416 137.349 26.3801 131.421C28.7814 129.792 29.9333 129.318 31.6146 126.663H42.5331V162.043C42.5331 164.864 44.8204 167.136 47.6626 167.136L85.5057 167.408C87.0318 172.764 90.8158 177.364 96.0442 180.218V188.29C96.0442 188.29 96.0437 187.969 96.0442 190.449C96.0445 192.928 96.0442 190.545 96.0442 190.545H120V180.5C125.228 177.645 129.104 172.764 130.63 167.408H145.879C148.722 167.408 151.01 165.136 151.01 162.315V137.413H165.775C167.64 137.413 169.151 135.913 169.151 134.062V128.087H180.125L210.269 147.472C211.882 148.145 214.143 147.135 214.143 144.781L214.151 91.256C214.152 88.6555 211.969 87.7323 210.269 88.3132L180.406 104.626H169.151V98.8705C169.151 97.0194 167.64 95.5189 165.775 95.5189H153.957V92.1674C153.957 90.3164 152.446 88.8158 150.581 88.8158H135.387C135.063 88.8158 134.751 88.8609 134.455 88.945H127.697V82.928C150.362 82.7637 168.654 64.251 168.654 41.4654C168.654 18.5648 150.184 0.000218053 127.399 0L127.302 0.00145566Z" fill="#060606"/>
<path d="M88.8146 207.143C88.5104 207.143 88.2655 207.386 88.2655 207.688V215.011C88.2655 215.313 88.5104 215.556 88.8146 215.556H96.0442L81.6135 242H135.026L120.093 215.556H130.708C131.012 215.556 131.257 215.313 131.257 215.011V207.688C131.257 207.386 131.012 207.143 130.708 207.143H88.8146Z" fill="#060606"/>
<path d="M96 184C96 183.448 96.4477 183 97 183H119C119.552 183 120 183.448 120 184V191C120 191.552 119.552 192 119 192H97C96.4477 192 96 191.552 96 191V184Z" fill="#060606"/>
</svg>
