<svg width="40" height="43" viewBox="0 0 40 43" fill="none" xmlns="http://www.w3.org/2000/svg">
<path d="M35.1951 0.5H4.7561C2.13073 0.5 0 2.74 0 5.5V37.5C0 40.26 2.13073 42.5 4.7561 42.5H35.1951C37.8205 42.5 39.9512 40.26 39.9512 37.5V5.5C39.9512 2.74 37.8205 0.5 35.1951 0.5ZM12.3659 16.5V35.5H6.65854V16.5H12.3659ZM6.65854 10.97C6.65854 9.57 7.8 8.5 9.51219 8.5C11.2244 8.5 12.2993 9.57 12.3659 10.97C12.3659 12.37 11.3005 13.5 9.51219 13.5C7.8 13.5 6.65854 12.37 6.65854 10.97ZM33.2927 35.5H27.5854C27.5854 35.5 27.5854 26.24 27.5854 25.5C27.5854 23.5 26.6341 21.5 24.2561 21.46H24.18C21.878 21.46 20.9268 23.52 20.9268 25.5C20.9268 26.41 20.9268 35.5 20.9268 35.5H15.2195V16.5H20.9268V19.06C20.9268 19.06 22.7627 16.5 26.4534 16.5C30.2298 16.5 33.2927 19.23 33.2927 24.76V35.5Z" fill="#F9F9F9"/>
</svg>
