<svg width="337" height="67" viewBox="0 0 337 67" fill="none" xmlns="http://www.w3.org/2000/svg">
<path d="M118.512 64.6972V50.3972H124.396C125.662 50.3972 126.745 50.6014 127.644 51.01C128.557 51.4186 129.258 52.0042 129.748 52.7669C130.238 53.5295 130.484 54.4352 130.484 55.4839C130.484 56.5325 130.238 57.4382 129.748 58.2009C129.258 58.9635 128.557 59.5492 127.644 59.9577C126.745 60.3663 125.662 60.5706 124.396 60.5706H119.983L121.168 59.3244V64.6972H118.512ZM121.168 59.6104L119.983 58.3234H124.273C125.445 58.3234 126.323 58.0783 126.909 57.588C127.508 57.0841 127.807 56.3827 127.807 55.4839C127.807 54.5714 127.508 53.87 126.909 53.3797C126.323 52.8894 125.445 52.6443 124.273 52.6443H119.983L121.168 51.3369V59.6104Z" fill="#F9F9F9"/>
<path d="M137.017 64.6972V50.3972H142.901C144.167 50.3972 145.25 50.6014 146.149 51.01C147.061 51.4186 147.763 52.0042 148.253 52.7669C148.743 53.5295 148.988 54.4352 148.988 55.4839C148.988 56.5325 148.743 57.4382 148.253 58.2009C147.763 58.9499 147.061 59.5287 146.149 59.9373C145.25 60.3323 144.167 60.5297 142.901 60.5297H138.488L139.673 59.3244V64.6972H137.017ZM146.373 64.6972L142.758 59.5083H145.597L149.233 64.6972H146.373ZM139.673 59.6104L138.488 58.3439H142.778C143.949 58.3439 144.828 58.0919 145.413 57.588C146.012 57.0841 146.312 56.3827 146.312 55.4839C146.312 54.5714 146.012 53.87 145.413 53.3797C144.828 52.8894 143.949 52.6443 142.778 52.6443H138.488L139.673 51.3369V59.6104Z" fill="#F9F9F9"/>
<path d="M162.541 64.9014C161.425 64.9014 160.396 64.7176 159.457 64.3499C158.517 63.9822 157.7 63.4714 157.005 62.8177C156.311 62.1504 155.773 61.3741 155.391 60.4889C155.01 59.59 154.819 58.6094 154.819 57.5472C154.819 56.4849 155.01 55.5111 155.391 54.6259C155.773 53.727 156.311 52.9507 157.005 52.297C157.7 51.6297 158.517 51.1122 159.457 50.7444C160.396 50.3767 161.418 50.1929 162.521 50.1929C163.638 50.1929 164.659 50.3767 165.585 50.7444C166.525 51.1122 167.342 51.6297 168.037 52.297C168.731 52.9507 169.269 53.727 169.651 54.6259C170.032 55.5111 170.223 56.4849 170.223 57.5472C170.223 58.6094 170.032 59.59 169.651 60.4889C169.269 61.3877 168.731 62.164 168.037 62.8177C167.342 63.4714 166.525 63.9822 165.585 64.3499C164.659 64.7176 163.645 64.9014 162.541 64.9014ZM162.521 62.5726C163.243 62.5726 163.91 62.45 164.523 62.2049C165.136 61.9597 165.667 61.6124 166.116 61.163C166.566 60.7 166.913 60.1688 167.158 59.5696C167.417 58.9567 167.546 58.2826 167.546 57.5472C167.546 56.8117 167.417 56.1444 167.158 55.5452C166.913 54.9323 166.566 54.4012 166.116 53.9517C165.667 53.4887 165.136 53.1346 164.523 52.8894C163.91 52.6443 163.243 52.5217 162.521 52.5217C161.799 52.5217 161.132 52.6443 160.519 52.8894C159.92 53.1346 159.389 53.4887 158.926 53.9517C158.476 54.4012 158.122 54.9323 157.863 55.5452C157.618 56.1444 157.496 56.8117 157.496 57.5472C157.496 58.269 157.618 58.9363 157.863 59.5492C158.122 60.162 158.476 60.7 158.926 61.163C159.375 61.6124 159.906 61.9597 160.519 62.2049C161.132 62.45 161.799 62.5726 162.521 62.5726Z" fill="#F9F9F9"/>
<path d="M176.919 64.6972V50.3972H183.17C184.723 50.3972 186.085 50.6968 187.256 51.296C188.427 51.8953 189.34 52.726 189.993 53.7883C190.647 54.8506 190.974 56.1035 190.974 57.5472C190.974 58.9772 190.647 60.2301 189.993 61.306C189.34 62.3683 188.427 63.1991 187.256 63.7983C186.085 64.3975 184.723 64.6972 183.17 64.6972H176.919ZM179.575 62.45H183.048C184.124 62.45 185.05 62.2457 185.826 61.8372C186.616 61.4286 187.222 60.8566 187.644 60.1212C188.08 59.3857 188.298 58.5277 188.298 57.5472C188.298 56.553 188.08 55.695 187.644 54.9732C187.222 54.2377 186.616 53.6657 185.826 53.2572C185.05 52.8486 184.124 52.6443 183.048 52.6443H179.575V62.45Z" fill="#F9F9F9"/>
<path d="M203.827 64.9014C201.866 64.9014 200.327 64.3499 199.21 63.2467C198.107 62.1436 197.555 60.5502 197.555 58.4664V50.3972H200.211V58.3643C200.211 59.8352 200.524 60.9043 201.151 61.5716C201.791 62.2389 202.69 62.5726 203.847 62.5726C205.005 62.5726 205.897 62.2389 206.524 61.5716C207.15 60.9043 207.463 59.8352 207.463 58.3643V50.3972H210.078V58.4664C210.078 60.5502 209.52 62.1436 208.403 63.2467C207.3 64.3499 205.775 64.9014 203.827 64.9014Z" fill="#F9F9F9"/>
<path d="M224.298 64.9014C223.208 64.9014 222.194 64.7244 221.254 64.3703C220.328 64.0026 219.517 63.4919 218.823 62.8382C218.142 62.1708 217.611 61.3877 217.229 60.4889C216.848 59.59 216.657 58.6094 216.657 57.5472C216.657 56.4849 216.848 55.5043 217.229 54.6054C217.611 53.7066 218.149 52.9303 218.843 52.2766C219.538 51.6093 220.348 51.0985 221.274 50.7444C222.2 50.3767 223.215 50.1929 224.318 50.1929C225.489 50.1929 226.558 50.3972 227.525 50.8057C228.492 51.2007 229.31 51.7931 229.977 52.583L228.261 54.1969C227.743 53.6385 227.164 53.2231 226.524 52.9507C225.884 52.6647 225.19 52.5217 224.441 52.5217C223.692 52.5217 223.004 52.6443 222.377 52.8894C221.765 53.1346 221.227 53.4819 220.764 53.9313C220.314 54.3807 219.96 54.9119 219.701 55.5247C219.456 56.1376 219.334 56.8117 219.334 57.5472C219.334 58.2826 219.456 58.9567 219.701 59.5696C219.96 60.1824 220.314 60.7136 220.764 61.163C221.227 61.6124 221.765 61.9597 222.377 62.2049C223.004 62.45 223.692 62.5726 224.441 62.5726C225.19 62.5726 225.884 62.4364 226.524 62.164C227.164 61.878 227.743 61.449 228.261 60.877L229.977 62.5113C229.31 63.2876 228.492 63.88 227.525 64.2886C226.558 64.6972 225.483 64.9014 224.298 64.9014Z" fill="#F9F9F9"/>
<path d="M239.144 64.6972V52.6443H234.405V50.3972H246.539V52.6443H241.8V64.6972H239.144Z" fill="#F9F9F9"/>
<path d="M252.414 64.6972V50.3972H255.069V64.6972H252.414Z" fill="#F9F9F9"/>
<path d="M269.519 64.9014C268.403 64.9014 267.374 64.7176 266.435 64.3499C265.495 63.9822 264.678 63.4714 263.983 62.8177C263.289 62.1504 262.751 61.3741 262.369 60.4889C261.988 59.59 261.797 58.6094 261.797 57.5472C261.797 56.4849 261.988 55.5111 262.369 54.6259C262.751 53.727 263.289 52.9507 263.983 52.297C264.678 51.6297 265.495 51.1122 266.435 50.7444C267.374 50.3767 268.396 50.1929 269.499 50.1929C270.616 50.1929 271.637 50.3767 272.563 50.7444C273.503 51.1122 274.32 51.6297 275.015 52.297C275.709 52.9507 276.247 53.727 276.629 54.6259C277.01 55.5111 277.201 56.4849 277.201 57.5472C277.201 58.6094 277.01 59.59 276.629 60.4889C276.247 61.3877 275.709 62.164 275.015 62.8177C274.32 63.4714 273.503 63.9822 272.563 64.3499C271.637 64.7176 270.623 64.9014 269.519 64.9014ZM269.499 62.5726C270.221 62.5726 270.888 62.45 271.501 62.2049C272.114 61.9597 272.645 61.6124 273.094 61.163C273.544 60.7 273.891 60.1688 274.136 59.5696C274.395 58.9567 274.524 58.2826 274.524 57.5472C274.524 56.8117 274.395 56.1444 274.136 55.5452C273.891 54.9323 273.544 54.4012 273.094 53.9517C272.645 53.4887 272.114 53.1346 271.501 52.8894C270.888 52.6443 270.221 52.5217 269.499 52.5217C268.777 52.5217 268.11 52.6443 267.497 52.8894C266.898 53.1346 266.367 53.4887 265.904 53.9517C265.454 54.4012 265.1 54.9323 264.841 55.5452C264.596 56.1444 264.474 56.8117 264.474 57.5472C264.474 58.269 264.596 58.9363 264.841 59.5492C265.1 60.162 265.454 60.7 265.904 61.163C266.353 61.6124 266.884 61.9597 267.497 62.2049C268.11 62.45 268.777 62.5726 269.499 62.5726Z" fill="#F9F9F9"/>
<path d="M283.897 64.6972V50.3972H286.083L295.051 61.4082H293.968V50.3972H296.603V64.6972H294.418L285.45 53.6862H286.532V64.6972H283.897Z" fill="#F9F9F9"/>
<path d="M22.7551 54.9612H113.72V59.6501H22.755L22.7551 54.9612Z" fill="#F9F9F9"/>
<path d="M22.7551 54.9612H113.72V59.6501H22.755L22.7551 54.9612Z" fill="#F9F9F9"/>
<rect x="301.584" y="55.0505" width="34.6151" height="4.53968" fill="#F9F9F9"/>
<rect x="301.584" y="55.0505" width="34.6151" height="4.53968" fill="#F9F9F9"/>
<rect x="34.5712" y="0.00683594" width="301.592" height="4.50137" fill="#F9F9F9"/>
<rect x="34.5712" y="0.00683594" width="301.592" height="4.50137" fill="#F9F9F9"/>
<path d="M90.1077 25.1295H101.294L99.9861 31.594H88.8366L90.1077 25.1295ZM87.7834 39.7291H79.2125L84.2969 14.3069H104.962L103.654 20.7714H91.5604L87.7834 39.7291Z" fill="#F9F9F9"/>
<path d="M104.037 39.7291L109.122 14.3069H120.526C123.891 14.3069 126.494 15.0453 128.334 16.5222C130.174 17.9749 131.094 20.0208 131.094 22.6599C131.094 24.7905 130.561 26.6548 129.496 28.2528C128.455 29.8508 126.966 31.0977 125.029 31.9935C123.116 32.8893 120.852 33.3372 118.238 33.3372H110.03L114.606 29.7418L112.608 39.7291H104.037ZM119.581 39.7291L114.352 30.4682H123.177L128.479 39.7291H119.581ZM114.388 30.7587L111.374 26.8727H118.673C119.86 26.8727 120.78 26.5822 121.434 26.0011C122.087 25.3958 122.414 24.5605 122.414 23.4952C122.414 22.5752 122.124 21.9214 121.542 21.5341C120.986 21.1225 120.211 20.9167 119.218 20.9167H112.572L117.148 16.9217L114.388 30.7587Z" fill="#F9F9F9"/>
<path d="M129.791 39.7291L145.988 14.3069H154.414L160.443 39.7291H151.908L147.804 18.2655H151.145L138.834 39.7291H129.791ZM137.272 35.2984L140.686 29.1244H152.38L153.325 35.2984H137.272Z" fill="#F9F9F9"/>
<path d="M163.263 39.7291L168.348 14.3069H175.321L182.112 30.904H178.408L191.482 14.3069H198.782L193.77 39.7291H185.962L188.613 26.0737L189.848 26.0011L181.059 37.4411H177.282L172.343 25.9648L173.795 26.0737L171.072 39.7291H163.263Z" fill="#F9F9F9"/>
<path d="M210.407 23.7494H221.738L220.503 29.9234H209.172L210.407 23.7494ZM209.063 33.2646H221.811L220.503 39.7291H199.367L204.451 14.3069H225.116L223.808 20.7714H211.569L209.063 33.2646Z" fill="#F9F9F9"/>
<path d="M225.256 39.7291L230.34 14.3069H241.635C245.049 14.3069 247.675 15.0453 249.516 16.5222C251.38 17.9992 252.312 20.0693 252.312 22.7325C252.312 24.8632 251.779 26.7396 250.714 28.3617C249.673 29.9839 248.184 31.2429 246.247 32.1388C244.334 33.0346 242.07 33.4825 239.456 33.4825H231.248L235.824 29.7418L233.826 39.7291H225.256ZM235.606 30.7587L232.592 26.8727H239.891C241.078 26.8727 241.998 26.5822 242.652 26.0011C243.305 25.3958 243.632 24.5605 243.632 23.4952C243.632 22.5752 243.342 21.9214 242.761 21.5341C242.204 21.1225 241.429 20.9167 240.436 20.9167H233.79L238.366 16.9217L235.606 30.7587Z" fill="#F9F9F9"/>
<path d="M253.343 39.7291L258.428 14.3069H266.999L263.258 33.083H274.734L273.391 39.7291H253.343Z" fill="#F9F9F9"/>
<path d="M274.805 39.7291L291.003 14.3069H299.429L305.457 39.7291H296.923L292.819 18.2655H296.16L283.848 39.7291H274.805ZM282.287 35.2984L285.701 29.1244H297.395L298.339 35.2984H282.287Z" fill="#F9F9F9"/>
<path d="M313.183 39.7291L315.399 28.5796L316.343 33.7004L308.68 14.3069H317.287L322.517 27.6354H317.106L327.819 14.3069H336.427L321.064 33.7004L323.97 28.5796L321.754 39.7291H313.183Z" fill="#F9F9F9"/>
<path d="M35.2447 0.000403013C28.9469 0.0150427 23.8492 5.15057 23.8492 11.4805C23.8494 11.8853 23.871 12.2899 23.9137 12.6925H22.8168C22.8346 12.4314 22.8435 12.1699 22.8435 11.9083C22.8435 5.56803 17.7298 0.428234 11.4218 0.428173C5.11368 0.428234 -7.80067e-06 5.56803 0 11.9083C-7.80067e-06 18.2485 5.11368 23.3883 11.4218 23.3884C13.4912 23.3883 15.5218 22.8232 17.2965 21.7533V23.7487C17.2965 23.7876 17.298 23.8261 17.3018 23.8641V24.6257H17.1765C17.0942 24.6021 17.0071 24.5895 16.9172 24.5895H12.7105C12.1942 24.5895 11.7757 25.0049 11.7757 25.5174V32.8947H8.79526C8.75314 32.8947 8.79526 32.8528 8.79526 32.8947C8.50225 32.4584 8.00509 32.0544 7.35622 31.5865C6.5372 30.9959 5.87705 30.6914 5.3621 30.6826C4.37889 30.6658 3.92401 31.7265 3.89991 33.9309C3.86319 37.29 4.88426 38.0262 7.30358 36.3852C7.96841 35.9343 8.2873 35.803 8.75281 35.068H11.7757V44.8632C11.7757 45.6443 12.409 46.2732 13.1959 46.2732L23.6731 46.3485C24.0956 47.8314 25.1432 49.1048 26.5908 49.8951V52.1299C26.5908 52.1299 26.5906 52.041 26.5908 52.7276C26.5908 53.414 26.5908 52.7542 26.5908 52.7542H33.2231V49.9731C34.6705 49.1828 35.7437 47.8313 36.1661 46.3485H40.3881C41.175 46.3485 41.8087 45.7195 41.8087 44.9384V38.0441H45.8964C46.4126 38.0441 46.8312 37.6287 46.8312 37.1162V35.4621H49.8693L58.2151 40.829C58.6615 41.0153 59.2875 40.7357 59.2876 40.0839L59.2898 25.2651C59.2899 24.5451 58.6857 24.2895 58.2151 24.4503L49.9472 28.9667H46.8312V27.3732C46.8312 26.8608 46.4126 26.4453 45.8964 26.4453H42.6245V25.5174C42.6245 25.0049 42.206 24.5895 41.6897 24.5895H37.4831C37.3936 24.5895 37.307 24.602 37.2251 24.6253H35.3542V22.9594C41.6291 22.9139 46.6934 17.7885 46.6935 11.4801C46.6935 5.13985 41.5798 6.037e-05 35.2717 0L35.2447 0.000403013Z" fill="#F9F9F9"/>
<path d="M24.5892 57.3495C24.5049 57.3495 24.4371 57.4168 24.4371 57.5004V59.5278C24.4371 59.6114 24.505 59.6787 24.5892 59.6787H26.5908L22.5955 67H37.3833L33.2488 59.6787H36.1877C36.272 59.6787 36.3398 59.6114 36.3398 59.5278V57.5004C36.3398 57.4168 36.272 57.3495 36.1877 57.3495H24.5892Z" fill="#F9F9F9"/>
<path d="M26.5785 50.9421C26.5785 50.7892 26.7025 50.6653 26.8554 50.6653H32.9463C33.0992 50.6653 33.2231 50.7892 33.2231 50.9421V52.8802C33.2231 53.0331 33.0992 53.157 32.9463 53.157H26.8554C26.7025 53.157 26.5785 53.0331 26.5785 52.8802V50.9421Z" fill="#F9F9F9"/>
</svg>
