<svg width="42" height="43" viewBox="0 0 42 43" fill="none" xmlns="http://www.w3.org/2000/svg">
<path fill-rule="evenodd" clip-rule="evenodd" d="M6 0.5C2.68629 0.5 0 3.18629 0 6.5V36.5C0 39.8137 2.68629 42.5 6 42.5H36C39.3137 42.5 42 39.8137 42 36.5V6.5C42 3.18629 39.3137 0.5 36 0.5H6ZM21.5172 20.7445C21.2025 20.9486 20.7975 20.9486 20.4828 20.7445L7.52251 12.336C6.72603 11.8192 7.09101 10.58 8.03969 10.58L33.9603 10.58C34.909 10.58 35.274 11.8192 34.4775 12.336L21.5172 20.7445ZM33.8196 15.323L26.236 20.1255L21.5232 23.1325C21.2052 23.3355 20.7977 23.3311 20.484 23.1215L15.288 19.6482L8.16842 15.2857C7.53405 14.897 6.72 15.3548 6.72 16.1002L6.72 30.6255C6.72 31.1526 7.14623 31.58 7.672 31.58H34.328C34.8538 31.58 35.28 31.1526 35.28 30.6255V24.8982L35.28 24.896L35.28 16.13C35.28 15.3783 34.4535 14.9216 33.8196 15.323Z" fill="#F9F9F9"/>
</svg>
