<svg width="960" height="243" viewBox="0 0 960 243" fill="none" xmlns="http://www.w3.org/2000/svg">
<path d="M147.099 241.738V188.412H169.039C173.762 188.412 177.8 189.174 181.152 190.697C184.555 192.221 187.17 194.405 188.998 197.249C190.827 200.093 191.741 203.47 191.741 207.381C191.741 211.291 190.827 214.669 188.998 217.513C187.17 220.357 184.555 222.541 181.152 224.064C177.8 225.588 173.762 226.35 169.039 226.35H152.584L157.003 221.703V241.738H147.099ZM157.003 222.769L152.584 217.97H168.582C172.95 217.97 176.225 217.056 178.409 215.227C180.644 213.348 181.761 210.733 181.761 207.381C181.761 203.978 180.644 201.363 178.409 199.534C176.225 197.706 172.95 196.792 168.582 196.792H152.584L157.003 191.916V222.769Z" fill="#F9F9F9"/>
<path d="M216.105 241.738V188.412H238.045C242.768 188.412 246.806 189.174 250.158 190.697C253.56 192.221 256.176 194.405 258.004 197.249C259.833 200.093 260.747 203.47 260.747 207.381C260.747 211.291 259.833 214.669 258.004 217.513C256.176 220.306 253.56 222.465 250.158 223.988C246.806 225.461 242.768 226.197 238.045 226.197H221.59L226.008 221.703V241.738H216.105ZM250.996 241.738L237.512 222.388H248.101L261.661 241.738H250.996ZM226.008 222.769L221.59 218.046H237.588C241.956 218.046 245.231 217.106 247.415 215.227C249.65 213.348 250.767 210.733 250.767 207.381C250.767 203.978 249.65 201.363 247.415 199.534C245.231 197.706 241.956 196.792 237.588 196.792H221.59L226.008 191.916V222.769Z" fill="#F9F9F9"/>
<path d="M311.288 242.5C307.124 242.5 303.289 241.814 299.785 240.443C296.281 239.072 293.234 237.167 290.643 234.73C288.053 232.241 286.047 229.346 284.625 226.045C283.203 222.693 282.492 219.036 282.492 215.075C282.492 211.114 283.203 207.482 284.625 204.181C286.047 200.829 288.053 197.934 290.643 195.497C293.234 193.008 296.281 191.078 299.785 189.707C303.289 188.336 307.098 187.65 311.212 187.65C315.377 187.65 319.186 188.336 322.639 189.707C326.143 191.078 329.191 193.008 331.781 195.497C334.371 197.934 336.377 200.829 337.799 204.181C339.221 207.482 339.932 211.114 339.932 215.075C339.932 219.036 339.221 222.693 337.799 226.045C336.377 229.397 334.371 232.292 331.781 234.73C329.191 237.167 326.143 239.072 322.639 240.443C319.186 241.814 315.402 242.5 311.288 242.5ZM311.212 233.815C313.904 233.815 316.392 233.358 318.678 232.444C320.963 231.53 322.944 230.235 324.62 228.559C326.296 226.832 327.591 224.851 328.505 222.617C329.47 220.331 329.952 217.818 329.952 215.075C329.952 212.333 329.47 209.844 328.505 207.609C327.591 205.324 326.296 203.343 324.62 201.667C322.944 199.94 320.963 198.62 318.678 197.706C316.392 196.792 313.904 196.335 311.212 196.335C308.52 196.335 306.032 196.792 303.746 197.706C301.512 198.62 299.531 199.94 297.804 201.667C296.128 203.343 294.808 205.324 293.843 207.609C292.929 209.844 292.472 212.333 292.472 215.075C292.472 217.767 292.929 220.255 293.843 222.541C294.808 224.826 296.128 226.832 297.804 228.559C299.48 230.235 301.461 231.53 303.746 232.444C306.032 233.358 308.52 233.815 311.212 233.815Z" fill="#F9F9F9"/>
<path d="M364.904 241.738V188.412H388.215C394.005 188.412 399.084 189.529 403.451 191.764C407.819 193.998 411.222 197.096 413.659 201.058C416.097 205.019 417.316 209.692 417.316 215.075C417.316 220.408 416.097 225.08 413.659 229.092C411.222 233.054 407.819 236.152 403.451 238.386C399.084 240.621 394.005 241.738 388.215 241.738H364.904ZM374.807 233.358H387.758C391.77 233.358 395.224 232.597 398.119 231.073C401.064 229.549 403.324 227.416 404.899 224.674C406.524 221.931 407.336 218.732 407.336 215.075C407.336 211.368 406.524 208.168 404.899 205.476C403.324 202.734 401.064 200.601 398.119 199.077C395.224 197.553 391.77 196.792 387.758 196.792H374.807V233.358Z" fill="#F9F9F9"/>
<path d="M465.247 242.5C457.933 242.5 452.194 240.443 448.03 236.329C443.916 232.216 441.859 226.274 441.859 218.503V188.412H451.763V218.122C451.763 223.607 452.931 227.594 455.267 230.083C457.654 232.571 461.006 233.815 465.323 233.815C469.64 233.815 472.966 232.571 475.302 230.083C477.639 227.594 478.807 223.607 478.807 218.122V188.412H488.558V218.503C488.558 226.274 486.476 232.216 482.311 236.329C478.197 240.443 472.509 242.5 465.247 242.5Z" fill="#F9F9F9"/>
<path d="M541.584 242.5C537.521 242.5 533.738 241.84 530.233 240.519C526.78 239.148 523.758 237.244 521.168 234.806C518.629 232.317 516.648 229.397 515.226 226.045C513.804 222.693 513.093 219.036 513.093 215.075C513.093 211.114 513.804 207.457 515.226 204.105C516.648 200.753 518.654 197.858 521.244 195.42C523.834 192.932 526.856 191.027 530.31 189.707C533.763 188.336 537.547 187.65 541.66 187.65C546.028 187.65 550.015 188.412 553.621 189.935C557.227 191.408 560.274 193.617 562.762 196.563L556.363 202.581C554.433 200.499 552.275 198.95 549.888 197.934C547.501 196.868 544.911 196.335 542.118 196.335C539.324 196.335 536.759 196.792 534.423 197.706C532.138 198.62 530.132 199.915 528.405 201.591C526.729 203.267 525.409 205.248 524.444 207.533C523.529 209.819 523.072 212.333 523.072 215.075C523.072 217.818 523.529 220.331 524.444 222.617C525.409 224.902 526.729 226.883 528.405 228.559C530.132 230.235 532.138 231.53 534.423 232.444C536.759 233.358 539.324 233.815 542.118 233.815C544.911 233.815 547.501 233.308 549.888 232.292C552.275 231.225 554.433 229.625 556.363 227.492L562.762 233.587C560.274 236.482 557.227 238.691 553.621 240.215C550.015 241.738 546.003 242.5 541.584 242.5Z" fill="#F9F9F9"/>
<path d="M596.948 241.738V196.792H579.275V188.412H624.526V196.792H606.852V241.738H596.948Z" fill="#F9F9F9"/>
<path d="M646.432 241.738V188.412H656.336V241.738H646.432Z" fill="#F9F9F9"/>
<path d="M710.221 242.5C706.057 242.5 702.222 241.814 698.718 240.443C695.214 239.072 692.166 237.167 689.576 234.73C686.986 232.241 684.98 229.346 683.558 226.045C682.136 222.693 681.425 219.036 681.425 215.075C681.425 211.114 682.136 207.482 683.558 204.181C684.98 200.829 686.986 197.934 689.576 195.497C692.166 193.008 695.214 191.078 698.718 189.707C702.222 188.336 706.031 187.65 710.145 187.65C714.309 187.65 718.118 188.336 721.572 189.707C725.076 191.078 728.123 193.008 730.714 195.497C733.304 197.934 735.31 200.829 736.732 204.181C738.154 207.482 738.865 211.114 738.865 215.075C738.865 219.036 738.154 222.693 736.732 226.045C735.31 229.397 733.304 232.292 730.714 234.73C728.123 237.167 725.076 239.072 721.572 240.443C718.118 241.814 714.335 242.5 710.221 242.5ZM710.145 233.815C712.837 233.815 715.325 233.358 717.611 232.444C719.896 231.53 721.877 230.235 723.553 228.559C725.229 226.832 726.524 224.851 727.438 222.617C728.403 220.331 728.885 217.818 728.885 215.075C728.885 212.333 728.403 209.844 727.438 207.609C726.524 205.324 725.229 203.343 723.553 201.667C721.877 199.94 719.896 198.62 717.611 197.706C715.325 196.792 712.837 196.335 710.145 196.335C707.453 196.335 704.965 196.792 702.679 197.706C700.445 198.62 698.464 199.94 696.737 201.667C695.061 203.343 693.741 205.324 692.776 207.609C691.862 209.844 691.404 212.333 691.404 215.075C691.404 217.767 691.862 220.255 692.776 222.541C693.741 224.826 695.061 226.832 696.737 228.559C698.413 230.235 700.394 231.53 702.679 232.444C704.965 233.358 707.453 233.815 710.145 233.815Z" fill="#F9F9F9"/>
<path d="M763.837 241.738V188.412H771.988L805.431 229.473H801.394V188.412H811.221V241.738H803.07L769.626 200.677H773.664V241.738H763.837Z" fill="#F9F9F9"/>
<rect x="0.273926" y="205.764" width="129.084" height="16.929" fill="#F9F9F9"/>
<rect x="0.273926" y="205.764" width="129.084" height="16.929" fill="#F9F9F9"/>
<rect x="829.795" y="205.764" width="129.084" height="16.929" fill="#F9F9F9"/>
<rect x="829.795" y="205.764" width="129.084" height="16.929" fill="#F9F9F9"/>
<rect x="0.273926" y="0.5" width="958.604" height="16.929" fill="#F9F9F9"/>
<rect x="0.273926" y="0.5" width="958.604" height="16.929" fill="#F9F9F9"/>
<path d="M41.1745 94.1852H82.8876L78.012 118.292H36.4344L41.1745 94.1852ZM32.5069 148.629H0.544922L19.5054 53.8264H96.5662L91.6906 77.9333H46.5918L32.5069 148.629Z" fill="#F9F9F9"/>
<path d="M93.1201 148.629L112.081 53.8264H154.606C167.156 53.8264 176.862 56.5802 183.724 62.0878C190.586 67.505 194.017 75.1344 194.017 84.9758C194.017 92.9211 192.031 99.8733 188.058 105.832C184.176 111.791 178.623 116.441 171.4 119.782C164.267 123.122 155.825 124.793 146.074 124.793H115.466L132.531 111.385L125.082 148.629H93.1201ZM151.085 148.629L131.583 114.094H164.493L184.266 148.629H151.085ZM131.718 115.177L120.477 100.686H147.699C152.123 100.686 155.554 99.6024 157.992 97.4355C160.43 95.1783 161.649 92.0634 161.649 88.0907C161.649 84.6598 160.565 82.222 158.398 80.7774C156.322 79.2425 153.432 78.475 149.731 78.475H124.947L142.011 63.5775L131.718 115.177Z" fill="#F9F9F9"/>
<path d="M189.157 148.629L249.56 53.8264H280.98L303.462 148.629H271.635L256.331 68.5885H268.791L222.88 148.629H189.157ZM217.056 132.106L229.787 109.083H273.396L276.917 132.106H217.056Z" fill="#F9F9F9"/>
<path d="M313.98 148.629L332.94 53.8264H358.943L384.269 115.719H370.455L419.211 53.8264H446.432L427.743 148.629H398.625L408.511 97.7064L413.116 97.4355L380.342 140.097H366.257L347.838 97.3001L353.255 97.7064L343.098 148.629H313.98Z" fill="#F9F9F9"/>
<path d="M489.784 89.0387H532.039L527.435 112.062H485.18L489.784 89.0387ZM484.773 124.522H532.31L527.435 148.629H448.613L467.574 53.8264H544.634L539.759 77.9333H494.118L484.773 124.522Z" fill="#F9F9F9"/>
<path d="M545.156 148.629L564.116 53.8264H606.236C618.966 53.8264 628.763 56.5802 635.625 62.0878C642.577 67.5953 646.053 75.315 646.053 85.2466C646.053 93.192 644.066 100.189 640.094 106.239C636.211 112.288 630.659 116.983 623.436 120.324C616.303 123.664 607.861 125.335 598.11 125.335H567.502L584.567 111.385L577.118 148.629H545.156ZM583.754 115.177L572.513 100.686H599.735C604.159 100.686 607.59 99.6024 610.028 97.4355C612.466 95.1783 613.685 92.0634 613.685 88.0907C613.685 84.6598 612.601 82.222 610.434 80.7774C608.358 79.2425 605.468 78.475 601.767 78.475H576.982L594.047 63.5775L583.754 115.177Z" fill="#F9F9F9"/>
<path d="M649.899 148.629L668.859 53.8264H700.821L686.872 123.845H729.668L724.657 148.629H649.899Z" fill="#F9F9F9"/>
<path d="M729.933 148.629L790.335 53.8264H821.756L844.237 148.629H812.411L797.107 68.5885H809.567L763.655 148.629H729.933ZM757.832 132.106L770.562 109.083H814.172L817.693 132.106H757.832Z" fill="#F9F9F9"/>
<path d="M873.049 148.629L881.311 107.051L884.832 126.147L856.256 53.8264H888.353L907.855 103.53H887.676L927.629 53.8264H959.726L902.438 126.147L913.273 107.051L905.011 148.629H873.049Z" fill="#F9F9F9"/>
</svg>
